<?xml version="1.0" encoding="UTF-8" standalone="no"?>
<!-- Svg Vector Icons : http://www.onlinewebfonts.com/icon -->

<svg
   xmlns:dc="http://purl.org/dc/elements/1.1/"
   xmlns:cc="http://creativecommons.org/ns#"
   xmlns:rdf="http://www.w3.org/1999/02/22-rdf-syntax-ns#"
   xmlns:svg="http://www.w3.org/2000/svg"
   xmlns="http://www.w3.org/2000/svg"
   xmlns:sodipodi="http://sodipodi.sourceforge.net/DTD/sodipodi-0.dtd"
   xmlns:inkscape="http://www.inkscape.org/namespaces/inkscape"
   version="1.1"
   x="0px"
   y="0px"
   viewBox="0 0 1000 1000"
   enable-background="new 0 0 1000 1000"
   xml:space="preserve"
   id="svg14"
   sodipodi:docname="turntable.svg"
   inkscape:version="0.92.3 (2405546, 2018-03-11)"><defs
   id="defs18" /><sodipodi:namedview
   pagecolor="#ffffff"
   bordercolor="#666666"
   borderopacity="1"
   objecttolerance="10"
   gridtolerance="10"
   guidetolerance="10"
   inkscape:pageopacity="0"
   inkscape:pageshadow="2"
   inkscape:window-width="1920"
   inkscape:window-height="1032"
   id="namedview16"
   showgrid="false"
   inkscape:zoom="0.236"
   inkscape:cx="516.94915"
   inkscape:cy="476.69492"
   inkscape:window-x="1920"
   inkscape:window-y="22"
   inkscape:window-maximized="1"
   inkscape:current-layer="svg14" />
<metadata
   id="metadata2"> Svg Vector Icons : http://www.onlinewebfonts.com/icon <rdf:RDF><cc:Work
     rdf:about=""><dc:format>image/svg+xml</dc:format><dc:type
       rdf:resource="http://purl.org/dc/dcmitype/StillImage" /></cc:Work></rdf:RDF></metadata>
<g
   id="g12"
   style="fill:#ffffff"><g
     transform="translate(0.000000,511.000000) scale(0.100000,-0.100000)"
     id="g10"
     style="fill:#ffffff"><path
       d="M8853.8,4237.7v-402.8l-59.1-37.2c-87.6-59.1-157.6-140.1-221.1-262.7c-50.4-94.1-59.1-135.7-56.9-295.5c0-157.6,8.8-203.6,56.9-295.5c63.5-120.4,133.5-203.6,221.1-262.7l59.1-37.2V811.7c0-1983.4-4.4-2066.5-120.4-2419c-78.8-240.8-249.6-562.6-400.6-757.4c-113.8-146.7-135.7-164.2-201.4-166.4c-41.6,0-100.7-2.2-131.3-4.4c-37.2-2.2-210.2-159.8-597.6-547.3c-299.9-297.7-558.2-569.2-577.9-604.2c-21.9-43.8-30.6-102.9-24.1-179.5c8.7-98.5,24.1-133.6,111.6-234.2c168.6-199.2,308.7-304.3,420.3-317.4c52.5-4.4,122.6-2.2,157.6,4.4c70.1,17.5,1125.2,1055.1,1182.1,1160.2c21.9,41.6,30.6,96.3,21.9,162c-10.9,94.1-4.4,105.1,109.5,240.8c328.4,387.5,571.4,877.9,687.4,1394.5c50.4,216.7,50.4,238.6,59.1,2178.2l8.8,1959.3l89.7,65.7c188.3,137.9,289,405,238.6,639.2c-30.7,146.7-142.3,321.8-256.1,398.4l-76.6,52.5v400.6v402.8h-350.3h-350.3V4237.7z"
       id="path4"
       style="fill:#ffffff" /><path
       d="M3512.3,4266.1C1242.2,4005.6-294.6,1851.5,189.2-392.4c479.4-2237.3,2841.5-3559.5,5017.5-2813c2384,820.9,3349.4,3699.6,1941.8,5792.5C6345.1,3780.1,4937.5,4430.3,3512.3,4266.1z M1964.6,2379.1c-6.6-13.1-67.9-96.3-133.5-188.3c-137.9-192.7-243-396.2-334.9-641.4c-76.6-208-81-247.4-8.8-89.7c91.9,203.6,253.9,429.1,442.2,617.3l183.9,186.1l159.8-159.8l159.8-159.8l-116-157.6c-142.3-186.1-278-440-350.3-654.6c-59.1-172.9-118.2-477.2-118.2-608.6v-85.4H1321H791.2l15.3,214.5c17.5,251.8,83.2,586.7,157.6,814.4c120.4,363.4,367.8,794.6,613,1068.3l124.8,140.1l137.9-137.9C1916.5,2462.3,1971.2,2390,1964.6,2379.1z M4383.6,1766.1c225.5-78.8,383.1-177.3,551.7-343.7c164.2-166.4,264.9-324,345.9-551.7c50.4-140.1,56.9-192.6,56.9-433.4c0-240.8-6.6-293.3-56.9-433.4c-81-227.7-181.7-385.3-345.9-551.7c-166.4-164.2-324-264.9-551.7-345.9c-140.1-50.4-192.6-56.9-433.4-56.9c-240.8,0-293.3,6.6-433.4,56.9C3289-812.7,3131.4-712,2965-547.8c-501.3,503.5-553.8,1254.4-124.8,1832.3c181.7,243,505.7,453.1,807.8,521C3856,1853.7,4184.4,1836.2,4383.6,1766.1z M7135.4,279.7c-48.2-617.3-216.7-1129.6-523.2-1604.6c-118.2-179.5-352.4-470.7-383.1-470.7c-8.7,0-83.2,61.3-166.4,137.9l-148.9,137.9l81,107.3c46,59.1,127,194.8,181.7,304.3c94.1,188.3,247.4,560.4,247.4,597.6c0,8.7-37.2-50.3-83.2-135.7c-43.8-83.2-113.8-201.4-155.4-258.3c-85.4-127-376.5-431.3-407.2-431.3c-13.2,0-92,67.9-175.1,153.2l-151.1,151.1l98.5,105.1c140.1,148.9,227.7,286.8,339.3,518.8c94.1,199.2,183.9,510.1,183.9,639.2c0,37.2,6.6,100.7,13.1,137.9l15.3,67.9h521h523.2L7135.4,279.7z"
       id="path6"
       style="fill:#ffffff" /><path
       d="M3731.2,1102.8c-496.9-179.5-641.4-792.5-273.6-1158.1c142.3-144.5,273.6-197,492.6-197c218.9,0,350.3,52.5,492.6,197c144.5,142.3,197,273.6,197,492.6c0,218.9-52.5,350.3-197,492.6C4263.2,1109.4,3956.7,1183.8,3731.2,1102.8z"
       id="path8"
       style="fill:#ffffff" /></g></g>
</svg>